<svg width="22" height="18" viewBox="0 0 22 18" fill="none" xmlns="http://www.w3.org/2000/svg">
<path d="M6.39287 4.56426C9.84287 3.57854 11.8143 3.57854 15.2643 4.56426M5.90001 13.4357C9.35001 14.4214 12.3072 14.4214 15.7572 13.4357M14.2786 13.9285C14.2786 14.9143 15.7572 16.8857 16.25 16.8857C17.7286 16.8857 19.0425 15.2425 19.7 13.9285C20.3575 12.2854 20.1929 8.17887 18.2214 2.59283C16.7853 1.59233 15.2643 1.27197 13.7857 1.11426L12.8 3.57854M7.37857 13.9285C7.37857 14.9143 6.04194 16.8857 5.57274 16.8857C4.16416 16.8857 2.91328 15.2425 2.28736 13.9285C1.66143 12.2854 1.81816 8.17887 3.69496 2.59283C5.06313 1.59233 6.43721 1.27197 7.87143 1.11426L8.85714 3.57854M8.85715 8.99997C8.85715 9.54437 8.41583 9.98569 7.87144 9.98569C7.32704 9.98569 6.88572 9.54437 6.88572 8.99997C6.88572 8.45558 7.32704 8.01426 7.87144 8.01426C8.41583 8.01426 8.85715 8.45558 8.85715 8.99997ZM14.7714 8.99997C14.7714 9.54437 14.3301 9.98569 13.7857 9.98569C13.2413 9.98569 12.8 9.54437 12.8 8.99997C12.8 8.45558 13.2413 8.01426 13.7857 8.01426C14.3301 8.01426 14.7714 8.45558 14.7714 8.99997Z" stroke="white" stroke-width="2" stroke-linecap="round" stroke-linejoin="round"/>
</svg>
